#!OML:ASF E:\Steps\Project 1\Capture day 1\Session 2\Subject.ASF
:FULLY-SPECIFIED
:DEGREES
528
root 3.4902 18.0556 8.45486 -153.428 -4.09385 176.986
lowerback -24.458 -2.51178 -7.49397
upperback 0.270271 -1.38826 -0.354882
thorax 14.2849 -1.26996 3.36331
lowerneck 0.591064 -5.62661 -2.45335
upperneck 15.876 -9.62061 5.25054
head 5.04668 -5.0207 1.56563
rclavicle 2.14687e-014 1.70955e-014
rhumerus -33.3063 -15.6802 -79.1005
rradius 31.4133
rwrist -2.27238
rhand -9.4447 -53.0499
rfingers 7.12502
rthumb 16.5183 -82.3668
lclavicle 2.14687e-014 1.70955e-014
lhumerus -27.1041 -3.79967 81.886
lradius 24.2009
lwrist -2.45234
lhand -22.0084 -11.9937
lfingers 7.12502
lthumb 4.40064 17.9406
rfemur -29.8649 10.1897 15.5798
rtibia 12.0695
rfoot -16.2863 -3.05476
rtoes -18.1299
lfemur -29.2932 -10.3803 -22.0809
ltibia 10.8828
lfoot -5.50859 -4.28449
ltoes -32.0764
529
root 3.48523 18.0583 8.42681 -153.837 -4.06984 177.041
lowerback -24.419 -2.47354 -7.39187
upperback 0.399102 -1.35183 -0.341243
thorax 14.4107 -1.24766 3.33374
lowerneck 0.437081 -5.60644 -2.52294
upperneck 15.5259 -9.50626 5.31144
head 4.96518 -4.94667 1.60263
rclavicle -9.74045e-015 4.81059e-014
rhumerus -33.0626 -15.7869 -79.1369
rradius 31.379
rwrist -2.20084
rhand -9.44435 -52.2199
rfingers 7.12502
rthumb 16.5187 -81.5368
lclavicle -9.74045e-015 4.81059e-014
lhumerus -26.9934 -3.55455 81.9297
lradius 24.0715
lwrist -2.81531
lhand -22.1627 -11.8806
lfingers 7.12502
lthumb 4.25165 18.0567
rfemur -29.1485 9.87995 15.8583
rtibia 11.7891
rfoot -16.2472 -2.68306
rtoes -18.235
lfemur -28.6262 -10.3371 -22.1417
ltibia 10.6914
lfoot -5.51757 -4.28839
ltoes -32.0011
530
root 3.46169 18.0607 8.35828 -154.821 -3.25646 177.348
lowerback -24.5466 -2.07733 -6.93984
upperback 0.781426 -0.882854 -0.43534
thorax 14.8758 -1.00718 3.13445
lowerneck 0.264668 -5.62374 -2.47417
upperneck 15.228 -9.45483 5.32421
head 4.89842 -4.90151 1.60102
rclavicle -6.55989e-015 -2.50469e-014
rhumerus -32.8322 -15.7917 -79.2205
rradius 31.3531
rwrist -2.12287
rhand -9.53213 -52.4261
rfingers 7.12502
rthumb 16.4342 -81.7499
lclavicle -6.55989e-015 -2.50469e-014
lhumerus -26.7343 -3.26242 81.9109
lradius 23.7686
lwrist -3.19496
lhand -22.2267 -11.773
lfingers 7.12502
lthumb 4.18989 18.1655
rfemur -27.7585 9.66676 16.3932
rtibia 11.4489
rfoot -16.2711 -1.4398
rtoes -18.1364
lfemur -26.7403 -10.5066 -22.0934
ltibia 9.72834
lfoot -5.58956 -3.20556
ltoes -31.7553
531
root 3.46931 18.0598 8.36123 -154.607 -3.49315 177.255
lowerback -24.5812 -2.20275 -7.10731
upperback 0.599496 -1.02589 -0.417428
thorax 14.6962 -1.08292 3.19872
lowerneck 0.0446608 -5.69925 -2.22876
upperneck 15.0493 -9.49839 5.21704
head 4.86644 -4.90132 1.52263
rclavicle 5.96354e-016 -7.15625e-015
rhumerus -32.745 -15.8541 -79.2786
rradius 31.2628
rwrist -1.89744
rhand -9.57059 -52.5956
rfingers 7.12502
rthumb 16.3971 -81.9225
lclavicle 5.96354e-016 -7.15625e-015
lhumerus -26.6798 -3.16652 81.8956
lradius 23.5999
lwrist -3.23139
lhand -22.1527 -11.7286
lfingers 7.12502
lthumb 4.26129 18.2086
rfemur -27.9652 9.59391 16.3071
rtibia 11.4647
rfoot -16.2315 -1.64238
rtoes -17.5192
lfemur -27.1943 -10.3097 -22.1478
ltibia 10.1363
lfoot -5.58347 -3.70461
ltoes -30.7673
532
root 3.47637 18.0562 8.36007 -154.347 -3.7231 177.248
lowerback -24.6753 -2.27229 -7.17918
upperback 0.376256 -1.12678 -0.37497
thorax 14.4948 -1.13344 3.25213
lowerneck -0.0441442 -5.7623 -2.12758
upperneck 14.9373 -9.55657 5.19067
head 4.84362 -4.91968 1.49451
rclavicle -4.27387e-015 3.97569e-016
rhumerus -32.8268 -15.8454 -79.3188
rradius 31.327
rwrist -1.88912
rhand -9.62858 -52.3919
rfingers 7.12502
rthumb 16.3413 -81.7235
lclavicle -4.27387e-015 3.97569e-016
lhumerus -26.6465 -3.02085 81.9232
lradius 23.4156
lwrist -3.39361
lhand -22.0138 -11.6802
lfingers 7.12502
lthumb 4.39548 18.2541
rfemur -28.1662 9.64951 16.2892
rtibia 11.3787
rfoot -16.1745 -1.95506
rtoes -17.3404
lfemur -27.6588 -10.2278 -22.0668
ltibia 10.4652
lfoot -5.62282 -4.03106
ltoes -30.2887
533
root 3.48098 18.0556 8.35167 -154.252 -3.89968 177.209
lowerback -24.7027 -2.33601 -7.25039
upperback 0.230042 -1.21489 -0.327926
thorax 14.3478 -1.17837 3.31566
lowerneck -0.0232712 -5.77247 -2.32761
upperneck 14.6726 -9.5398 5.38417
head 4.77587 -4.90637 1.59187
rclavicle 8.24956e-015 5.96354e-016
rhumerus -32.8898 -15.7354 -79.3244
rradius 31.4524
rwrist -1.94887
rhand -9.36327 -52.4875
rfingers 7.12502
rthumb 16.5967 -81.7979
lclavicle 8.24956e-015 5.96354e-016
lhumerus -26.5354 -2.93033 82.0224
lradius 23.209
lwrist -3.51562
lhand -21.9187 -11.7584
lfingers 7.12502
lthumb 4.4873 18.1741
rfemur -28.1352 9.70461 16.2592
rtibia 11.2614
rfoot -16.1527 -2.20454
rtoes -17.8639
lfemur -27.8217 -10.2936 -22.0464
ltibia 10.6334
lfoot -5.73256 -4.16059
ltoes -30.5927
534
root 3.4827 18.0548 8.34068 -154.265 -3.95868 177.113
lowerback -24.6895 -2.38385 -7.35743
upperback 0.131836 -1.26517 -0.308964
thorax 14.2317 -1.20788 3.38134
lowerneck -0.0403213 -5.79864 -2.53505
upperneck 14.2988 -9.51892 5.57354
head 4.68105 -4.88689 1.68997
rclavicle -5.76476e-015 1.82882e-014
rhumerus -32.9259 -15.5035 -79.3348
rradius 31.535
rwrist -2.02514
rhand -9.04344 -52.6603
rfingers 7.12502
rthumb 16.9046 -81.9446
lclavicle -5.76476e-015 1.82882e-014
lhumerus -26.4162 -3.04218 82.1731
lradius 23.0381
lwrist -3.34695
lhand -21.8413 -11.853
lfingers 7.12502
lthumb 4.56203 18.0779
rfemur -27.9934 9.75672 16.1622
rtibia 11.1653
rfoot -16.1159 -2.3944
rtoes -18.3893
lfemur -27.8439 -10.4456 -22.131
ltibia 10.8171
lfoot -5.80208 -4.10537
ltoes -30.6403
535
root 3.48467 18.0531 8.33163 -154.226 -4.01616 177.089
lowerback -24.749 -2.41225 -7.37953
upperback 0.0310325 -1.30888 -0.294281
thorax 14.1504 -1.22952 3.39467
lowerneck -0.28583 -5.86411 -2.38213
upperneck 14.3148 -9.54981 5.28725
head 4.7083 -4.89577 1.56813
rclavicle 1.39149e-015 -3.99557e-014
rhumerus -32.9148 -15.305 -79.3894
rradius 31.5314
rwrist -2.20913
rhand -9.3338 -52.2755
rfingers 7.12502
rthumb 16.6251 -81.5835
lclavicle 1.39149e-015 -3.99557e-014
lhumerus -26.3042 -2.98122 82.2642
lradius 22.8907
lwrist -3.34556
lhand -21.7128 -11.6041
lfingers 7.12502
lthumb 4.68605 18.324
rfemur -27.9991 9.79053 16.1427
rtibia 11.1882
rfoot -16.1903 -2.4539
rtoes -18.3066
lfemur -28.0088 -10.5236 -22.1198
ltibia 11.1452
lfoot -5.91593 -4.09582
ltoes -30.6325
536
root 3.47127 18.0581 8.28471 -154.925 -3.50141 177.271
lowerback -24.7443 -2.17155 -7.1243
upperback 0.252871 -1.02195 -0.376308
thorax 14.3716 -1.081 3.25796
lowerneck -0.719126 -5.99182 -1.89174
upperneck 14.5667 -9.67623 4.73852
head 4.81536 -4.94645 1.29666
rclavicle 8.74653e-015 -1.39149e-015
rhumerus -32.8312 -15.2207 -79.5195
rradius 31.5151
rwrist -2.35681
rhand -9.70766 -51.9133
rfingers 7.12502
rthumb 16.2651 -81.2511
lclavicle 8.74653e-015 -1.39149e-015
lhumerus -26.216 -2.72462 82.22
lradius 22.8293
lwrist -3.53256
lhand -21.6904 -11.4034
lfingers 7.12502
lthumb 4.70777 18.5243
rfemur -27.0736 9.92881 16.4113
rtibia 11.0562
rfoot -16.2845 -1.81717
rtoes -17.7707
lfemur -26.8507 -10.5525 -22.1493
ltibia 10.8227
lfoot -6.17492 -3.43366
ltoes -32.0713
